<svg xmlns="http://www.w3.org/2000/svg"  viewBox="0 0 50 50" width="100px" height="100px"><path d="M 25 2 C 23.355469 2 22 3.355469 22 5 C 22 5.847656 22.363281 6.609375 22.9375 7.15625 C 21.617188 7.335938 20.457031 7.652344 20 8 L 20 10.15625 C 20 10.15625 21.550781 11 23.09375 11 L 23.34375 12.09375 C 21.378906 12.34375 19.558594 13.039063 17.96875 14.0625 C 17.816406 13.898438 17.613281 13.695313 17.40625 13.5 C 17.394531 13.328125 17.40625 13.023438 17.40625 12.6875 C 17.402344 12.011719 17.457031 11.113281 16.75 10.3125 C 16.289063 9.789063 12.058594 4.90625 12.03125 4.875 L 12 4.84375 L 11.40625 4.09375 L 10.625 4.6875 L 10.625 4.71875 L 10.59375 4.71875 L 10.59375 4.75 C 8.773438 6.148438 7.507813 7.492188 6.1875 9.4375 C 6.179688 9.449219 6.164063 9.457031 6.15625 9.46875 L 5.65625 10.21875 L 6.34375 10.8125 C 6.34375 10.8125 10.910156 14.699219 11.75 15.40625 C 12.578125 16.101563 13.558594 16.101563 14.25 16.0625 C 14.582031 16.042969 14.855469 16.011719 15.03125 16 C 15.132813 16.089844 15.234375 16.207031 15.34375 16.3125 C 13.273438 18.617188 12 21.660156 12 25 C 12 28.285156 13.242188 31.273438 15.25 33.5625 L 14.09375 34.90625 C 13.746094 34.5 13.410156 34.105469 13.09375 33.71875 C 13.140625 33.703125 13.3125 33.65625 13.3125 33.65625 C 13.660156 33.53125 13.910156 33.222656 13.964844 32.855469 C 14.015625 32.488281 13.863281 32.125 13.5625 31.90625 C 10.414063 29.527344 8.78125 27.40625 8.78125 27.40625 C 8.578125 27.128906 8.25 26.976563 7.90625 27 C 7.476563 27.042969 7.125 27.359375 7.03125 27.78125 C 7.03125 27.78125 6.730469 29.089844 6.6875 30.78125 C 6.644531 32.472656 6.808594 34.59375 7.84375 36.375 C 7.84375 36.386719 7.84375 36.394531 7.84375 36.40625 L 7.875 36.4375 C 8.046875 36.722656 8.347656 36.90625 8.679688 36.925781 C 9.011719 36.945313 9.332031 36.796875 9.53125 36.53125 C 9.875 37.074219 10.289063 37.6875 10.84375 38.40625 C 10.863281 38.433594 10.882813 38.472656 10.90625 38.5 L 8.625 41.09375 C 8.355469 41.355469 8.253906 41.75 8.363281 42.109375 C 8.476563 42.46875 8.78125 42.738281 9.152344 42.800781 C 9.527344 42.863281 9.902344 42.710938 10.125 42.40625 L 12.25 40.03125 C 13.390625 41.257813 14.777344 42.488281 16.5 43.46875 C 17.5625 44.070313 18.835938 44.472656 19.9375 44.78125 C 20.488281 44.9375 21.011719 45.046875 21.40625 45.15625 C 21.800781 45.265625 22.117188 45.386719 22.09375 45.375 C 22.8125 45.75 23.675781 46.875 24.1875 47.59375 C 24.375 47.855469 24.679688 48.011719 25 48.011719 C 25.320313 48.011719 25.625 47.855469 25.8125 47.59375 C 26.324219 46.875 27.1875 45.75 27.90625 45.375 C 27.882813 45.386719 28.199219 45.265625 28.59375 45.15625 C 28.988281 45.046875 29.511719 44.9375 30.0625 44.78125 C 31.164063 44.472656 32.4375 44.070313 33.5 43.46875 C 35.222656 42.488281 36.609375 41.257813 37.75 40.03125 L 39.875 42.40625 C 40.097656 42.710938 40.472656 42.863281 40.847656 42.800781 C 41.21875 42.738281 41.523438 42.46875 41.636719 42.109375 C 41.746094 41.75 41.644531 41.355469 41.375 41.09375 L 39.09375 38.5 C 39.117188 38.472656 39.136719 38.433594 39.15625 38.40625 C 39.707031 37.699219 40.125 37.101563 40.46875 36.5625 C 40.675781 36.824219 40.996094 36.964844 41.332031 36.941406 C 41.664063 36.917969 41.960938 36.726563 42.125 36.4375 L 42.15625 36.40625 C 42.15625 36.394531 42.15625 36.386719 42.15625 36.375 C 43.191406 34.59375 43.355469 32.472656 43.3125 30.78125 C 43.269531 29.089844 42.96875 27.78125 42.96875 27.78125 C 42.875 27.414063 42.582031 27.132813 42.210938 27.050781 C 41.839844 26.972656 41.457031 27.109375 41.21875 27.40625 C 41.21875 27.40625 39.585938 29.527344 36.4375 31.90625 C 36.136719 32.125 35.984375 32.488281 36.035156 32.855469 C 36.089844 33.222656 36.339844 33.53125 36.6875 33.65625 C 36.6875 33.65625 36.859375 33.703125 36.90625 33.71875 C 36.589844 34.105469 36.253906 34.496094 35.90625 34.90625 L 34.75 33.59375 C 36.769531 31.304688 38 28.292969 38 25 C 38 21.652344 36.707031 18.617188 34.625 16.3125 C 34.738281 16.199219 34.8125 16.117188 34.9375 16 C 34.917969 16 34.984375 15.996094 34.96875 16 C 35.144531 16.011719 35.417969 16.042969 35.75 16.0625 C 36.441406 16.101563 37.421875 16.101563 38.25 15.40625 C 39.089844 14.699219 43.65625 10.8125 43.65625 10.8125 L 44.34375 10.21875 L 43.84375 9.46875 C 43.839844 9.460938 43.847656 9.445313 43.84375 9.4375 L 43.8125 9.4375 C 42.492188 7.492188 41.226563 6.148438 39.40625 4.75 C 39.398438 4.746094 39.414063 4.722656 39.40625 4.71875 L 39.375 4.71875 L 39.375 4.6875 L 38.59375 4.09375 L 38 4.84375 L 37.96875 4.84375 L 37.96875 4.875 C 37.941406 4.90625 33.710938 9.789063 33.25 10.3125 C 32.542969 11.113281 32.597656 12.011719 32.59375 12.6875 C 32.59375 13.023438 32.605469 13.328125 32.59375 13.5 C 32.339844 13.742188 32.0625 14.03125 32.03125 14.0625 C 30.441406 13.039063 28.621094 12.34375 26.65625 12.09375 L 26.90625 11 C 28.449219 11 30 10.15625 30 10.15625 L 30 8 C 29.542969 7.652344 28.382813 7.335938 27.0625 7.15625 C 27.636719 6.609375 28 5.847656 28 5 C 28 3.355469 26.644531 2 25 2 Z M 25 4 C 25.5625 4 26 4.4375 26 5 C 26 5.5625 25.5625 6 25 6 C 24.4375 6 24 5.5625 24 5 C 24 4.4375 24.4375 4 25 4 Z M 11.1875 6.90625 C 12.058594 7.914063 14.796875 11.109375 15.25 11.625 C 15.226563 11.597656 15.40625 12.089844 15.40625 12.6875 C 15.40625 12.988281 15.386719 13.304688 15.40625 13.625 C 15.414063 13.765625 15.59375 13.984375 15.625 14.15625 C 15.402344 14.117188 15.128906 13.992188 14.96875 14 C 14.683594 14.015625 14.417969 14.046875 14.15625 14.0625 C 13.632813 14.089844 13.222656 14.035156 13.03125 13.875 C 12.332031 13.285156 9.28125 10.703125 8.34375 9.90625 C 9.195313 8.738281 10.101563 7.808594 11.1875 6.90625 Z M 38.8125 6.90625 C 39.898438 7.808594 40.804688 8.738281 41.65625 9.90625 C 40.71875 10.703125 37.667969 13.285156 36.96875 13.875 C 36.777344 14.035156 36.367188 14.089844 35.84375 14.0625 C 35.582031 14.046875 35.316406 14.015625 35.03125 14 C 34.871094 13.992188 34.597656 14.117188 34.375 14.15625 C 34.40625 13.984375 34.585938 13.765625 34.59375 13.625 C 34.613281 13.304688 34.59375 12.988281 34.59375 12.6875 C 34.59375 12.089844 34.773438 11.597656 34.75 11.625 C 35.203125 11.109375 37.941406 7.914063 38.8125 6.90625 Z M 24.96875 13 L 25.78125 13 L 26.65625 15.1875 L 25.90625 15.1875 L 25.75 14.71875 L 24.84375 14.71875 L 24.65625 15.15625 L 24.03125 15.125 Z M 23.53125 13.03125 L 23.84375 15.21875 L 23.1875 15.34375 L 22.875 13.125 Z M 27.375 13.09375 L 28.21875 13.34375 L 28.53125 15.15625 L 28.96875 13.5625 L 29.5 13.71875 L 28.90625 15.84375 L 28.0625 15.625 L 27.78125 13.75 L 27.28125 15.40625 L 26.75 15.25 Z M 22.1875 13.25 L 22.875 15.34375 L 22.28125 15.5625 L 22 14.6875 L 21.25 14.9375 L 21.53125 15.8125 L 20.90625 16 L 20.21875 13.90625 L 20.84375 13.6875 L 21.09375 14.53125 L 21.84375 14.28125 L 21.5625 13.4375 Z M 25.34375 13.375 L 25 14.3125 L 25.625 14.3125 Z M 19.65625 14.15625 L 19.875 14.53125 L 19.28125 14.90625 L 20.1875 16.4375 L 19.625 16.78125 L 18.71875 15.25 L 18.09375 15.625 L 17.875 15.25 Z M 30.375 14.3125 C 30.574219 14.28125 30.824219 14.328125 31.125 14.5 C 31.914063 14.953125 31.707031 15.386719 31.59375 15.59375 L 31.03125 15.25 C 31.0625 15.191406 31.175781 14.996094 30.90625 14.84375 C 30.746094 14.75 30.597656 14.761719 30.53125 14.875 C 30.449219 15.015625 30.558594 15.117188 30.625 15.1875 L 30.9375 15.5 C 31.167969 15.722656 31.453125 16 31.21875 16.40625 C 30.972656 16.835938 30.476563 16.789063 29.96875 16.5 C 29.757813 16.378906 29.445313 16.179688 29.375 15.875 C 29.316406 15.636719 29.425781 15.429688 29.46875 15.34375 L 30.03125 15.65625 C 29.988281 15.734375 29.855469 15.964844 30.1875 16.15625 C 30.234375 16.183594 30.5 16.34375 30.625 16.125 C 30.675781 16.035156 30.675781 15.957031 30.5625 15.84375 L 30.125 15.4375 C 30.007813 15.324219 29.707031 14.996094 29.9375 14.59375 C 30.027344 14.4375 30.175781 14.34375 30.375 14.3125 Z M 25.03125 15.5625 C 30.230469 15.5625 34.4375 19.789063 34.4375 25 C 34.4375 26.066406 34.261719 27.074219 33.9375 28.03125 C 32.160156 25.175781 31.363281 21.960938 31.5 18.1875 L 31.4375 18.15625 C 29.84375 18.6875 28.8125 19.203125 27.71875 19.78125 C 27.726563 19.679688 27.71875 19.582031 27.71875 19.46875 C 27.71875 18.882813 27.527344 18.175781 26.1875 18.0625 C 24.378906 17.898438 21.925781 18.769531 18.65625 20.71875 L 18.625 20.78125 C 19.789063 22.332031 21.550781 28.257813 21.90625 30.8125 L 21.96875 30.8125 C 22.929688 30.058594 23.980469 29.460938 24.78125 29.1875 C 24.753906 29.453125 24.71875 29.820313 24.71875 30.1875 C 24.71875 30.820313 24.800781 31.476563 25.25 31.84375 C 25.664063 32.183594 26.328125 32.207031 27.1875 31.9375 C 28.253906 31.601563 29.265625 30.972656 30.34375 30.28125 C 31.4375 29.582031 32.550781 28.84375 33.75 28.46875 C 32.367188 31.953125 29 34.4375 25.03125 34.4375 C 24.335938 34.4375 23.652344 34.363281 23 34.21875 L 23 34.1875 L 18.4375 20.375 L 18.78125 20.21875 L 17.75 18.96875 C 19.476563 16.878906 22.113281 15.5625 25.03125 15.5625 Z M 17.375 15.625 L 18.90625 17.21875 L 18.28125 17.84375 L 16.5 17.15625 L 17.71875 18.40625 L 17.46875 18.625 L 17.25 18.375 L 17.28125 18.625 L 17.28125 18.75 L 15.78125 17.21875 L 16.40625 16.59375 L 18.125 17.21875 L 16.96875 16.03125 Z M 33.53125 16.3125 L 34.25 17.125 C 34.371094 17.261719 34.523438 17.4375 34.5625 17.65625 C 34.609375 17.878906 34.527344 18.121094 34.3125 18.3125 C 34.023438 18.574219 33.71875 18.472656 33.625 18.4375 C 33.433594 18.367188 33.269531 18.15625 33.1875 18.0625 L 32.90625 17.75 L 32.3125 18.28125 L 31.875 17.8125 Z M 33.65625 17.09375 L 33.21875 17.46875 L 33.40625 17.6875 C 33.511719 17.804688 33.683594 17.980469 33.90625 17.78125 C 34.105469 17.601563 33.96875 17.421875 33.84375 17.28125 Z M 15.34375 17.8125 L 17.15625 19.09375 L 16.78125 19.625 L 14.96875 18.34375 Z M 35.4375 18.75 L 35.8125 19.4375 L 34.34375 21.3125 L 34 20.6875 L 34.28125 20.34375 L 33.84375 19.53125 L 33.375 19.59375 L 33.0625 19.03125 Z M 23.71875 18.78125 L 23.90625 19.03125 L 24.21875 18.9375 L 24.03125 19.1875 L 24.21875 19.46875 L 23.90625 19.375 L 23.6875 19.625 L 23.6875 19.3125 L 23.40625 19.1875 L 23.6875 19.09375 Z M 17.4375 18.84375 C 17.660156 19.109375 18.425781 20.03125 18.53125 20.15625 C 18.386719 20.222656 17.695313 20.550781 17.53125 20.625 C 17.523438 20.4375 17.453125 19.191406 17.4375 18.84375 Z M 26.21875 19.03125 C 26.703125 19.066406 27.152344 19.234375 27.5625 19.6875 C 27.539063 19.820313 27.519531 19.960938 27.5 20.09375 C 26.574219 19.625 25.683594 19.578125 24.75 19.9375 C 24.71875 19.820313 24.726563 19.6875 24.71875 19.5625 C 24.710938 19.457031 24.707031 19.347656 24.6875 19.25 C 25.214844 19.105469 25.734375 18.996094 26.21875 19.03125 Z M 31.21875 19.03125 C 31.210938 19.121094 31.160156 19.773438 31.15625 19.8125 C 29.3125 20.40625 28.691406 20.785156 28.03125 21.1875 C 28.03125 21.1875 27.6875 21.390625 27.5 21.5 C 27.527344 21.21875 27.554688 20.941406 27.59375 20.65625 C 28.722656 19.976563 29.558594 19.640625 31.21875 19.03125 Z M 14.65625 19.0625 C 14.75 19.027344 14.910156 19.019531 15.125 19.125 C 15.34375 19.230469 15.398438 19.371094 15.40625 19.5 C 15.421875 19.671875 15.363281 19.8125 15.34375 19.875 C 15.554688 19.476563 15.765625 19.519531 16.09375 19.625 C 16.238281 19.671875 16.460938 19.761719 16.625 19.78125 L 16.3125 20.40625 C 16.175781 20.382813 16 20.316406 15.8125 20.25 C 15.558594 20.15625 15.472656 20.113281 15.34375 20.375 L 15.25 20.625 L 16 21 L 15.71875 21.59375 L 13.75 20.625 L 14.21875 19.65625 C 14.402344 19.277344 14.472656 19.128906 14.65625 19.0625 Z M 35.21875 19.25 L 34.25 19.4375 L 34.5625 20 L 35.25 19.28125 Z M 17.3125 19.5625 L 17.375 20.875 L 17.75 20.6875 L 21.90625 33.90625 C 18.234375 32.621094 15.59375 29.121094 15.59375 25 C 15.59375 22.980469 16.234375 21.097656 17.3125 19.5625 Z M 14.78125 19.6875 C 14.644531 19.707031 14.5625 19.875 14.5 20 L 14.375 20.21875 L 14.875 20.46875 L 14.96875 20.25 C 15.03125 20.121094 15.085938 20.058594 15.09375 20 C 15.117188 19.851563 15 19.75 14.9375 19.71875 C 14.875 19.6875 14.828125 19.679688 14.78125 19.6875 Z M 22.09375 19.6875 C 22.957031 19.6875 23.820313 20.230469 23.84375 21.3125 C 23.890625 23.472656 20.453125 23.476563 20.40625 21.3125 C 20.382813 20.230469 21.230469 19.6875 22.09375 19.6875 Z M 22.1875 20.1875 L 22.1875 20.25 C 22.179688 20.25 22.164063 20.246094 22.15625 20.25 C 22.160156 20.257813 22.164063 20.277344 22.15625 20.28125 C 22.15625 20.285156 22.125 20.28125 22.125 20.28125 C 22.125 20.28125 22.132813 20.308594 22.125 20.3125 L 22.125 20.34375 C 22.125 20.347656 22.09375 20.339844 22.09375 20.34375 C 22.082031 20.351563 22.074219 20.371094 22.0625 20.375 L 22 20.40625 C 21.976563 20.382813 21.902344 20.429688 21.875 20.4375 C 21.875 20.441406 21.886719 20.464844 21.875 20.46875 C 21.875 20.484375 21.875 20.480469 21.875 20.5 C 21.847656 20.511719 21.804688 20.523438 21.78125 20.53125 C 21.78125 20.539063 21.78125 20.558594 21.78125 20.5625 C 21.761719 20.570313 21.738281 20.589844 21.71875 20.59375 C 21.714844 20.585938 21.699219 20.558594 21.6875 20.5625 C 21.683594 20.558594 21.667969 20.535156 21.65625 20.53125 L 21.65625 20.46875 C 21.664063 20.460938 21.675781 20.410156 21.6875 20.40625 C 21.683594 20.390625 21.691406 20.390625 21.6875 20.375 C 21.675781 20.378906 21.6875 20.347656 21.6875 20.34375 C 21.667969 20.347656 21.617188 20.335938 21.59375 20.34375 L 21.59375 20.375 C 21.582031 20.378906 21.558594 20.386719 21.5625 20.40625 C 21.554688 20.410156 21.535156 20.40625 21.53125 20.40625 C 21.53125 20.414063 21.527344 20.429688 21.53125 20.4375 L 21.34375 20.5 C 21.347656 20.5 21.34375 20.527344 21.34375 20.53125 C 21.339844 20.53125 21.34375 20.554688 21.34375 20.5625 L 21.34375 20.59375 C 21.355469 20.589844 21.371094 20.59375 21.375 20.59375 C 21.386719 20.59375 21.394531 20.597656 21.40625 20.59375 C 21.417969 20.621094 21.402344 20.632813 21.40625 20.65625 C 21.394531 20.660156 21.378906 20.679688 21.375 20.6875 C 21.355469 20.746094 21.1875 20.738281 21.15625 20.75 C 21.121094 20.714844 21.039063 20.765625 21 20.78125 L 21 20.8125 L 21.03125 20.8125 L 21.03125 20.84375 L 21 20.84375 L 21 20.90625 C 21.015625 20.90625 21.023438 20.890625 21.03125 20.90625 C 21.039063 20.90625 21.0625 20.90625 21.0625 20.90625 L 21.0625 20.9375 C 21.066406 20.960938 21.074219 20.984375 21.0625 21 C 21.070313 21.050781 21.027344 21.117188 21.03125 21.15625 L 20.9375 21.1875 C 20.9375 21.191406 20.941406 21.21875 20.9375 21.21875 C 20.929688 21.242188 20.902344 21.238281 20.875 21.25 L 20.875 21.28125 C 20.820313 21.339844 20.863281 21.3125 20.84375 21.375 L 20.84375 21.40625 C 20.839844 21.40625 20.816406 21.4375 20.8125 21.4375 C 20.816406 21.457031 20.808594 21.457031 20.8125 21.46875 C 20.816406 21.46875 20.84375 21.480469 20.84375 21.5 C 20.855469 21.496094 20.871094 21.550781 20.875 21.5625 L 20.90625 21.5625 C 20.914063 21.5625 20.925781 21.566406 20.9375 21.5625 C 20.941406 21.582031 20.957031 21.566406 20.96875 21.5625 C 20.96875 21.554688 21 21.53125 21 21.53125 L 21.03125 21.53125 C 21.03125 21.535156 21.0625 21.519531 21.0625 21.53125 C 21.066406 21.527344 21.058594 21.589844 21.0625 21.59375 C 21.066406 21.59375 21.085938 21.597656 21.09375 21.59375 C 21.113281 21.597656 21.175781 21.582031 21.1875 21.5625 C 21.1875 21.558594 21.21875 21.53125 21.21875 21.53125 L 21.21875 21.5 C 21.238281 21.492188 21.238281 21.476563 21.25 21.46875 C 21.25 21.460938 21.269531 21.472656 21.28125 21.46875 C 21.277344 21.460938 21.277344 21.445313 21.28125 21.4375 C 21.308594 21.425781 21.351563 21.410156 21.375 21.40625 L 21.375 21.4375 L 21.40625 21.46875 C 21.40625 21.46875 21.40625 21.492188 21.40625 21.5 C 21.40625 21.5 21.433594 21.503906 21.4375 21.5 C 21.4375 21.503906 21.433594 21.53125 21.4375 21.53125 C 21.445313 21.546875 21.511719 21.539063 21.53125 21.53125 C 21.542969 21.542969 21.574219 21.566406 21.59375 21.5625 C 21.605469 21.558594 21.617188 21.550781 21.625 21.5625 C 21.664063 21.550781 21.722656 21.542969 21.75 21.53125 L 21.78125 21.625 L 21.78125 21.65625 C 21.804688 21.648438 21.816406 21.636719 21.84375 21.625 C 21.84375 21.632813 21.867188 21.65625 21.875 21.65625 C 21.878906 21.671875 21.898438 21.660156 21.90625 21.65625 C 21.914063 21.714844 21.957031 21.753906 21.96875 21.8125 C 21.996094 21.816406 21.988281 21.933594 22 21.96875 C 22.03125 21.960938 22.066406 21.976563 22.09375 21.96875 C 22.09375 21.976563 22.121094 21.984375 22.125 22 L 22.15625 22.0625 C 22.175781 22.054688 22.195313 22.070313 22.21875 22.0625 L 22.21875 22.15625 C 22.222656 22.15625 22.261719 22.164063 22.28125 22.15625 L 22.3125 22.21875 C 22.300781 22.222656 22.300781 22.242188 22.28125 22.25 C 22.28125 22.261719 22.253906 22.28125 22.25 22.28125 C 22.246094 22.296875 22.214844 22.300781 22.21875 22.3125 C 22.1875 22.324219 22.214844 22.363281 22.1875 22.375 C 22.1875 22.378906 22.183594 22.398438 22.1875 22.40625 L 22.15625 22.40625 C 22.15625 22.417969 22.132813 22.40625 22.125 22.40625 C 22.121094 22.421875 22.113281 22.4375 22.09375 22.4375 C 22.097656 22.457031 22.058594 22.5 22.0625 22.53125 C 22.09375 22.519531 22.128906 22.507813 22.15625 22.5 C 22.160156 22.5 22.183594 22.511719 22.1875 22.53125 C 22.195313 22.527344 22.210938 22.523438 22.21875 22.53125 L 22.25 22.5 C 22.25 22.5 22.273438 22.53125 22.28125 22.53125 C 22.285156 22.53125 22.335938 22.585938 22.3125 22.59375 L 22.34375 22.625 C 22.347656 22.613281 22.378906 22.578125 22.375 22.5625 C 22.386719 22.558594 22.40625 22.488281 22.40625 22.46875 C 22.40625 22.46875 22.4375 22.46875 22.4375 22.46875 C 22.453125 22.464844 22.460938 22.472656 22.46875 22.46875 C 22.46875 22.464844 22.460938 22.441406 22.46875 22.4375 L 22.5 22.4375 C 22.5 22.4375 22.492188 22.410156 22.5 22.40625 C 22.496094 22.394531 22.519531 22.378906 22.53125 22.375 C 22.527344 22.359375 22.519531 22.347656 22.53125 22.34375 L 22.53125 22.3125 C 22.53125 22.296875 22.546875 22.289063 22.5625 22.28125 C 22.582031 22.21875 22.574219 22.125 22.5625 22.0625 C 22.566406 22.058594 22.59375 22.035156 22.59375 22.03125 C 22.601563 22.03125 22.589844 22.003906 22.59375 22 C 22.59375 21.992188 22.625 22.003906 22.625 22 C 22.632813 21.988281 22.613281 21.972656 22.625 21.96875 C 22.625 21.957031 22.648438 21.9375 22.65625 21.9375 C 22.660156 21.925781 22.675781 21.90625 22.6875 21.90625 C 22.699219 21.875 22.785156 21.855469 22.8125 21.84375 C 22.808594 21.824219 22.859375 21.820313 22.875 21.8125 C 22.871094 21.777344 22.945313 21.753906 22.96875 21.75 C 22.96875 21.738281 22.988281 21.722656 23 21.71875 C 23 21.710938 23.027344 21.6875 23.03125 21.6875 C 23.027344 21.675781 23.03125 21.675781 23.03125 21.65625 C 23.050781 21.652344 23.050781 21.628906 23.0625 21.625 L 23.0625 21.59375 C 23.058594 21.578125 23.089844 21.578125 23.09375 21.5625 C 23.101563 21.5625 23.089844 21.535156 23.09375 21.53125 C 23.105469 21.527344 23.085938 21.5 23.09375 21.5 C 23.113281 21.480469 23.105469 21.433594 23.125 21.40625 C 23.117188 21.363281 23.160156 21.316406 23.15625 21.28125 C 23.175781 21.257813 23.144531 21.175781 23.15625 21.15625 L 23.15625 21.03125 L 23.1875 21.03125 C 23.191406 21.015625 23.21875 20.980469 23.21875 20.96875 L 23.25 20.96875 C 23.246094 20.960938 23.25 20.945313 23.25 20.9375 C 23.265625 20.929688 23.28125 20.914063 23.28125 20.90625 C 23.292969 20.898438 23.3125 20.878906 23.3125 20.875 C 23.316406 20.871094 23.304688 20.84375 23.3125 20.84375 L 23.3125 20.8125 C 23.320313 20.800781 23.328125 20.816406 23.34375 20.8125 L 23.34375 20.78125 C 23.347656 20.78125 23.34375 20.761719 23.34375 20.75 C 23.355469 20.75 23.378906 20.761719 23.375 20.75 C 23.421875 20.738281 23.410156 20.574219 23.40625 20.53125 C 23.402344 20.53125 23.375 20.511719 23.375 20.5 C 23.363281 20.503906 23.347656 20.480469 23.34375 20.46875 C 23.339844 20.472656 23.3125 20.46875 23.3125 20.46875 C 23.296875 20.472656 23.222656 20.488281 23.21875 20.46875 C 23.207031 20.472656 23.191406 20.488281 23.1875 20.46875 C 23.175781 20.476563 23.125 20.441406 23.125 20.4375 C 23.109375 20.441406 23.101563 20.449219 23.09375 20.4375 C 23.089844 20.4375 23.066406 20.433594 23.0625 20.4375 C 23.050781 20.421875 23.050781 20.429688 23.03125 20.4375 C 23.027344 20.40625 22.96875 20.453125 22.96875 20.4375 C 22.941406 20.449219 22.894531 20.449219 22.875 20.4375 L 22.8125 20.46875 C 22.8125 20.449219 22.753906 20.5 22.75 20.5 C 22.746094 20.496094 22.726563 20.46875 22.71875 20.46875 L 22.6875 20.4375 C 22.667969 20.429688 22.644531 20.445313 22.625 20.4375 L 22.59375 20.4375 C 22.59375 20.433594 22.542969 20.464844 22.53125 20.46875 C 22.527344 20.4375 22.453125 20.460938 22.4375 20.46875 L 22.4375 20.4375 C 22.429688 20.441406 22.308594 20.441406 22.3125 20.46875 C 22.304688 20.472656 22.3125 20.496094 22.3125 20.5 L 22.3125 20.53125 C 22.3125 20.539063 22.34375 20.519531 22.34375 20.53125 C 22.332031 20.542969 22.328125 20.554688 22.3125 20.5625 C 22.308594 20.546875 22.28125 20.574219 22.28125 20.5625 C 22.277344 20.566406 22.257813 20.5625 22.25 20.5625 C 22.25 20.558594 22.257813 20.527344 22.25 20.53125 C 22.25 20.527344 22.226563 20.527344 22.21875 20.53125 L 22.21875 20.5 C 22.226563 20.5 22.246094 20.5 22.25 20.5 C 22.25 20.488281 22.257813 20.460938 22.25 20.46875 C 22.261719 20.464844 22.277344 20.46875 22.28125 20.46875 C 22.285156 20.457031 22.304688 20.386719 22.3125 20.375 C 22.308594 20.359375 22.347656 20.359375 22.34375 20.34375 C 22.324219 20.347656 22.300781 20.3125 22.28125 20.3125 C 22.28125 20.296875 22.25 20.28125 22.25 20.28125 C 22.246094 20.265625 22.257813 20.25 22.25 20.25 C 22.246094 20.226563 22.226563 20.226563 22.21875 20.21875 L 22.21875 20.1875 C 22.210938 20.1875 22.191406 20.191406 22.1875 20.1875 Z M 18.3125 20.4375 C 18.351563 20.558594 18.527344 21.132813 18.59375 21.34375 C 18.410156 21.277344 18.085938 21.144531 18.03125 21.125 C 18.015625 21.066406 17.933594 20.722656 17.90625 20.625 C 17.988281 20.589844 18.210938 20.484375 18.3125 20.4375 Z M 26.125 20.53125 C 26.546875 20.519531 26.984375 20.574219 27.40625 20.71875 C 27.371094 20.992188 27.339844 21.265625 27.3125 21.53125 C 26.699219 21.117188 25.320313 21.394531 25.03125 21.53125 C 25.015625 21.457031 24.96875 21.15625 24.96875 21.15625 C 24.96875 21.15625 24.914063 20.832031 24.90625 20.78125 C 25.292969 20.617188 25.703125 20.542969 26.125 20.53125 Z M 19.59375 20.65625 L 19.78125 20.90625 L 20.09375 20.8125 L 19.90625 21.0625 L 20.09375 21.34375 L 19.78125 21.25 L 19.5625 21.5 L 19.5625 21.1875 L 19.28125 21.0625 L 19.5625 20.96875 Z M 36.4375 20.6875 L 36.625 21.3125 L 35.34375 21.6875 C 35.230469 21.71875 35.132813 21.753906 35.0625 21.84375 C 34.96875 21.960938 34.957031 22.128906 35 22.28125 C 35.113281 22.675781 35.414063 22.625 35.625 22.5625 L 36.875 22.21875 L 37.0625 22.8125 L 35.8125 23.15625 C 35.578125 23.222656 35.320313 23.28125 35.125 23.1875 C 34.808594 23.042969 34.644531 22.65625 34.5625 22.375 C 34.257813 21.316406 34.871094 21.132813 35.21875 21.03125 Z M 31.1875 20.84375 C 31.195313 20.910156 31.304688 21.535156 31.3125 21.59375 C 29.558594 21.796875 28.445313 22.554688 27.5625 23.15625 C 27.5625 23.15625 27.464844 23.222656 27.375 23.28125 C 27.382813 23.035156 27.390625 22.777344 27.40625 22.53125 C 28.636719 21.707031 29.566406 21.21875 31.1875 20.84375 Z M 24.28125 21.5 L 24.5 21.75 L 24.78125 21.65625 L 24.59375 21.90625 L 24.78125 22.15625 L 24.46875 22.09375 L 24.28125 22.34375 L 24.25 22.03125 L 23.96875 21.90625 L 24.28125 21.8125 Z M 14.125 21.53125 C 14.265625 21.523438 14.429688 21.535156 14.5625 21.5625 C 15.425781 21.753906 15.523438 22.457031 15.40625 23 C 15.273438 23.605469 14.835938 24.085938 14.03125 23.90625 C 13.886719 23.875 13.460938 23.753906 13.25 23.40625 C 13.035156 23.058594 13.121094 22.636719 13.15625 22.46875 C 13.304688 21.789063 13.703125 21.554688 14.125 21.53125 Z M 14.03125 22.1875 C 13.9375 22.195313 13.867188 22.226563 13.8125 22.25 C 13.671875 22.316406 13.625 22.453125 13.59375 22.59375 C 13.5 23.007813 13.816406 23.199219 14.1875 23.28125 C 14.53125 23.355469 14.875 23.324219 14.96875 22.90625 C 15.066406 22.457031 14.707031 22.285156 14.40625 22.21875 C 14.253906 22.183594 14.125 22.179688 14.03125 22.1875 Z M 18.40625 22.28125 C 18.585938 22.347656 18.917969 22.449219 18.96875 22.46875 C 18.988281 22.53125 19.296875 23.445313 19.375 23.6875 C 19.1875 23.617188 18.835938 23.488281 18.78125 23.46875 C 18.761719 23.40625 18.480469 22.519531 18.40625 22.28125 Z M 31.5 22.375 C 31.523438 22.480469 31.527344 22.605469 31.53125 22.71875 C 31.535156 22.859375 31.542969 23.015625 31.59375 23.15625 C 30.019531 23.367188 28.75 24.140625 27.53125 24.90625 C 27.53125 24.90625 27.476563 24.957031 27.40625 25 C 27.390625 24.734375 27.378906 24.457031 27.375 24.1875 C 28.804688 23.265625 30.0625 22.710938 31.5 22.375 Z M 25.875 22.46875 C 26.089844 22.46875 26.773438 22.496094 27.21875 22.5625 C 27.207031 22.78125 27.222656 23.003906 27.21875 23.21875 C 25.386719 22.59375 23.402344 23.609375 21.65625 24.5 C 21.65625 24.5 20.714844 24.96875 20.65625 25 C 20.632813 24.941406 20.425781 24.453125 20.40625 24.40625 C 20.453125 24.378906 20.875 24.15625 20.875 24.15625 C 22.402344 23.3125 23.960938 22.46875 25.875 22.46875 Z M 20.625 23.125 L 20.8125 23.375 L 21.125 23.28125 L 20.9375 23.53125 L 21.125 23.78125 L 20.8125 23.6875 L 20.59375 23.9375 L 20.59375 23.625 L 20.3125 23.53125 L 20.59375 23.4375 Z M 37.15625 23.625 L 37.1875 24.28125 L 35.40625 24.375 L 35.46875 25.4375 L 35.03125 25.46875 L 34.9375 23.75 Z M 25.625 24.0625 C 26.148438 24.035156 26.65625 24.09375 27.1875 24.28125 C 27.195313 24.542969 27.203125 24.804688 27.21875 25.0625 C 24.949219 24.429688 23.070313 25.414063 21.15625 26.59375 C 21.121094 26.480469 21.105469 26.367188 21.09375 26.25 C 21.082031 26.136719 21.058594 26.039063 21.03125 25.9375 C 22.523438 25.050781 24.058594 24.144531 25.625 24.0625 Z M 31.8125 24.09375 C 31.832031 24.144531 32.070313 24.746094 32.09375 24.8125 C 30.546875 25.050781 29.195313 25.847656 28.03125 26.5625 C 28.03125 26.5625 27.703125 26.777344 27.59375 26.84375 C 27.558594 26.605469 27.527344 26.363281 27.5 26.125 C 28.835938 25.238281 30.097656 24.554688 31.8125 24.09375 Z M 14.40625 24.25 C 15.097656 24.238281 15.179688 24.976563 15.1875 25.28125 C 15.195313 25.507813 15.160156 25.890625 14.90625 26.15625 C 14.652344 26.417969 14.292969 26.496094 14.0625 26.5 C 13.757813 26.507813 13.460938 26.433594 13.21875 26.21875 C 12.957031 25.984375 12.882813 25.683594 12.875 25.34375 C 12.867188 24.964844 12.945313 24.65625 13.125 24.46875 C 13.3125 24.277344 13.511719 24.289063 13.59375 24.28125 L 13.625 24.9375 C 13.402344 24.972656 13.308594 25.128906 13.3125 25.3125 C 13.320313 25.703125 13.65625 25.820313 14.0625 25.8125 C 14.199219 25.808594 14.761719 25.8125 14.75 25.3125 C 14.742188 24.96875 14.492188 24.917969 14.40625 24.90625 Z M 19.15625 24.65625 C 19.34375 24.726563 19.699219 24.855469 19.75 24.875 C 19.769531 24.933594 20.074219 25.882813 20.15625 26.125 C 19.964844 26.054688 19.585938 25.925781 19.53125 25.90625 C 19.511719 25.84375 19.230469 24.898438 19.15625 24.65625 Z M 35 25.625 L 37.21875 25.8125 L 37.15625 26.46875 L 34.9375 26.28125 Z M 32.375 25.6875 C 32.394531 25.730469 32.5 25.90625 32.5 25.90625 C 32.5 25.90625 32.625 26.1875 32.65625 26.25 C 31.1875 26.625 29.660156 27.359375 28 28.46875 C 27.992188 28.375 27.941406 27.816406 27.9375 27.78125 C 29.210938 26.886719 30.734375 26.167969 32.375 25.6875 Z M 25.78125 25.75 C 26.253906 25.707031 26.75 25.734375 27.28125 25.84375 C 27.300781 26.054688 27.347656 26.257813 27.375 26.46875 C 25.308594 26.027344 23.894531 26.902344 22.40625 27.8125 C 22.40625 27.8125 21.75 28.179688 21.6875 28.21875 C 21.664063 28.152344 21.5 27.71875 21.5 27.71875 C 21.5 27.71875 21.480469 27.628906 21.46875 27.59375 C 21.507813 27.570313 21.65625 27.46875 21.65625 27.46875 C 23.121094 26.605469 24.359375 25.878906 25.78125 25.75 Z M 35.4375 26.71875 C 35.527344 26.71875 35.578125 26.707031 35.625 26.71875 L 35.46875 27.375 C 35.382813 27.355469 35.15625 27.285156 35.0625 27.65625 C 35.046875 27.710938 34.976563 28 35.21875 28.0625 C 35.320313 28.089844 35.390625 28.046875 35.46875 27.90625 L 35.75 27.40625 C 35.828125 27.257813 36.019531 26.855469 36.46875 26.96875 C 36.816406 27.058594 37.078125 27.417969 36.90625 28.09375 C 36.683594 28.976563 36.230469 28.898438 36 28.84375 L 36.15625 28.21875 C 36.222656 28.234375 36.457031 28.300781 36.53125 28 C 36.578125 27.820313 36.503906 27.6875 36.375 27.65625 C 36.21875 27.617188 36.140625 27.726563 36.09375 27.8125 L 35.875 28.21875 C 35.726563 28.5 35.546875 28.832031 35.09375 28.71875 C 34.613281 28.597656 34.511719 28.097656 34.65625 27.53125 C 34.714844 27.296875 34.851563 26.933594 35.125 26.78125 C 35.230469 26.71875 35.347656 26.71875 35.4375 26.71875 Z M 19.90625 27.09375 C 20.097656 27.164063 20.507813 27.292969 20.5625 27.3125 C 20.582031 27.375 20.859375 28.289063 20.9375 28.53125 C 20.742188 28.457031 20.367188 28.300781 20.3125 28.28125 C 20.292969 28.21875 19.980469 27.332031 19.90625 27.09375 Z M 26.8125 27.125 C 27.027344 27.132813 27.238281 27.175781 27.46875 27.21875 C 27.5 27.414063 27.554688 27.613281 27.59375 27.8125 C 25.621094 27.535156 24.289063 28.371094 22.78125 29.34375 C 22.78125 29.34375 22.097656 29.773438 22.03125 29.8125 C 22.007813 29.746094 21.84375 29.25 21.84375 29.25 C 21.84375 29.25 21.824219 29.1875 21.8125 29.15625 C 21.859375 29.128906 22.71875 28.625 22.71875 28.625 C 24.09375 27.792969 25.300781 27.0625 26.8125 27.125 Z M 33.03125 27.125 C 33.082031 27.21875 33.125 27.308594 33.15625 27.40625 C 33.191406 27.511719 33.214844 27.632813 33.28125 27.75 C 31.835938 28.300781 30.636719 29.042969 29.46875 29.78125 C 28.371094 30.476563 27.328125 31.140625 26.28125 31.46875 C 26.128906 31.507813 25.601563 31.59375 25.28125 31.125 C 26.582031 30.722656 27.648438 30.070313 28.875 29.3125 C 30.023438 28.605469 31.328125 27.808594 33.03125 27.125 Z M 15.375 27.3125 L 15.5 27.84375 L 15.0625 27.96875 L 14.9375 27.40625 Z M 15.125 28.34375 C 15.621094 28.285156 15.890625 28.820313 16 29.0625 C 16.089844 29.269531 16.226563 29.660156 16.09375 30 C 15.960938 30.339844 15.648438 30.53125 15.4375 30.625 C 15.160156 30.746094 14.867188 30.792969 14.5625 30.6875 C 14.230469 30.574219 14.042969 30.308594 13.90625 30 C 13.753906 29.65625 13.71875 29.367188 13.8125 29.125 C 13.910156 28.875 14.082031 28.785156 14.15625 28.75 L 14.40625 29.375 C 14.214844 29.492188 14.207031 29.675781 14.28125 29.84375 C 14.4375 30.199219 14.816406 30.164063 15.1875 30 C 15.308594 29.945313 15.828125 29.707031 15.625 29.25 C 15.488281 28.9375 15.242188 29.007813 15.15625 29.03125 L 14.875 28.40625 C 14.953125 28.371094 15.054688 28.351563 15.125 28.34375 Z M 27.375 28.46875 C 27.445313 28.46875 27.480469 28.46875 27.5 28.5 C 27.507813 28.511719 27.53125 28.542969 27.53125 28.5625 C 27.53125 28.605469 27.507813 28.640625 27.46875 28.71875 C 26.710938 29.320313 25.945313 29.671875 25.15625 30.03125 C 25.15625 30.03125 25.054688 30.101563 25 30.125 C 24.984375 30.046875 24.96875 29.949219 24.96875 29.875 C 24.96875 29.730469 24.976563 29.589844 25.03125 29.4375 C 25.757813 29.074219 26.554688 28.710938 27.375 28.46875 Z M 34.15625 29.1875 L 35.75 29.96875 L 36.0625 29.34375 L 36.4375 29.53125 L 35.53125 31.40625 L 35.125 31.21875 L 35.46875 30.5625 L 33.84375 29.78125 Z M 20.65625 29.46875 C 20.851563 29.539063 21.289063 29.699219 21.34375 29.71875 C 21.363281 29.78125 21.671875 30.726563 21.75 30.96875 C 21.550781 30.894531 21.117188 30.707031 21.0625 30.6875 C 21.042969 30.625 20.730469 29.703125 20.65625 29.46875 Z M 33.78125 30.09375 L 34.96875 32.15625 L 34.5 32.78125 L 32.1875 32.1875 L 32.625 31.59375 L 33.09375 31.75 L 33.65625 31 L 33.375 30.59375 Z M 8.75 30.3125 C 9.285156 30.863281 10.1875 31.578125 11 32.28125 C 10.691406 32.386719 10.457031 32.632813 10.363281 32.941406 C 10.269531 33.25 10.332031 33.589844 10.53125 33.84375 C 10.53125 33.84375 10.628906 33.988281 10.6875 34.03125 C 10.691406 34.035156 10.714844 34.027344 10.71875 34.03125 C 11.328125 34.796875 12.527344 36.371094 14.125 37.875 C 15.804688 39.457031 17.789063 41 20 41 C 21.042969 41 21.921875 40.507813 22.53125 39.90625 C 23.140625 39.304688 23.542969 38.578125 23.78125 37.9375 C 24.179688 37.972656 24.59375 38 25 38 C 25.417969 38 25.84375 37.976563 26.25 37.9375 C 26.480469 38.5625 26.832031 39.253906 27.40625 39.84375 C 28.023438 40.472656 28.921875 41 30 41 C 32.210938 41 34.195313 39.457031 35.875 37.875 C 37.472656 36.371094 38.671875 34.800781 39.28125 34.03125 C 39.285156 34.027344 39.308594 34.035156 39.3125 34.03125 C 39.371094 33.988281 39.46875 33.84375 39.46875 33.84375 C 39.667969 33.589844 39.730469 33.25 39.636719 32.941406 C 39.542969 32.632813 39.308594 32.386719 39 32.28125 C 39.8125 31.578125 40.714844 30.863281 41.25 30.3125 C 41.269531 30.578125 41.304688 30.539063 41.3125 30.84375 C 41.335938 31.789063 41.203125 32.8125 40.96875 33.78125 C 40.742188 33.644531 40.46875 33.601563 40.210938 33.667969 C 39.953125 33.730469 39.730469 33.898438 39.59375 34.125 C 39.476563 34.324219 39.300781 34.621094 38.96875 35.15625 C 38.636719 35.691406 38.191406 36.421875 37.59375 37.1875 C 36.402344 38.722656 34.675781 40.480469 32.5 41.71875 C 31.734375 42.15625 30.550781 42.550781 29.5 42.84375 C 28.972656 42.992188 28.484375 43.132813 28.0625 43.25 C 27.640625 43.367188 27.324219 43.4375 26.96875 43.625 C 26.109375 44.074219 25.503906 44.714844 25 45.34375 C 24.496094 44.714844 23.890625 44.074219 23.03125 43.625 C 22.675781 43.4375 22.359375 43.367188 21.9375 43.25 C 21.515625 43.132813 21.027344 42.992188 20.5 42.84375 C 19.445313 42.546875 18.265625 42.152344 17.5 41.71875 C 15.324219 40.484375 13.597656 38.691406 12.40625 37.15625 C 11.808594 36.390625 11.363281 35.691406 11.03125 35.15625 C 10.699219 34.621094 10.527344 34.328125 10.40625 34.125 C 10.269531 33.898438 10.046875 33.730469 9.789063 33.667969 C 9.53125 33.601563 9.257813 33.644531 9.03125 33.78125 C 8.796875 32.8125 8.664063 31.789063 8.6875 30.84375 C 8.695313 30.539063 8.730469 30.578125 8.75 30.3125 Z M 16.65625 30.40625 L 16.96875 30.90625 L 16.59375 31.15625 L 16.28125 30.6875 Z M 33.875 31.375 L 33.5 31.875 L 34.40625 32.1875 L 34.4375 32.1875 Z M 16.90625 31.4375 C 17.207031 31.363281 17.546875 31.554688 17.84375 31.875 C 18.007813 32.050781 18.238281 32.34375 18.21875 32.65625 C 18.203125 32.90625 18.035156 33.058594 17.96875 33.125 L 17.53125 32.65625 C 17.59375 32.59375 17.792969 32.40625 17.53125 32.125 C 17.496094 32.085938 17.277344 31.890625 17.09375 32.0625 C 17.019531 32.132813 17.019531 32.203125 17.09375 32.34375 L 17.375 32.875 C 17.457031 33.019531 17.652344 33.371094 17.3125 33.6875 C 17.050781 33.933594 16.632813 33.980469 16.15625 33.46875 C 15.539063 32.804688 15.828125 32.445313 16 32.28125 L 16.46875 32.75 C 16.417969 32.796875 16.226563 32.960938 16.4375 33.1875 C 16.566406 33.324219 16.714844 33.339844 16.8125 33.25 C 16.929688 33.140625 16.890625 33.023438 16.84375 32.9375 L 16.625 32.53125 C 16.46875 32.253906 16.28125 31.914063 16.625 31.59375 C 16.714844 31.507813 16.804688 31.460938 16.90625 31.4375 Z M 21.4375 31.84375 C 21.636719 31.917969 22.070313 32.105469 22.125 32.125 C 22.144531 32.1875 22.453125 33.132813 22.53125 33.375 C 22.328125 33.296875 21.867188 33.113281 21.8125 33.09375 C 21.792969 33.03125 21.511719 32.082031 21.4375 31.84375 Z M 30.65625 33.4375 L 31.28125 34 L 31.96875 33.625 L 31.625 34.34375 L 32.1875 34.90625 L 31.375 34.8125 L 30.96875 35.53125 L 30.8125 34.75 L 30.0625 34.625 L 30.75 34.25 Z M 19.96875 33.59375 L 19.875 34.40625 L 20.5625 34.75 L 19.8125 34.90625 L 19.65625 35.6875 L 19.25 34.96875 L 18.4375 35.03125 L 19 34.5 L 18.65625 33.78125 L 19.34375 34.125 Z M 28.28125 34.4375 C 28.523438 34.414063 28.6875 34.5 28.78125 34.5625 C 28.972656 34.679688 29.152344 34.878906 29.28125 35.28125 C 29.464844 35.867188 29.367188 36.410156 28.6875 36.625 C 28.441406 36.703125 28.183594 36.71875 27.96875 36.59375 C 27.65625 36.414063 27.5 36.046875 27.4375 35.84375 C 27.375 35.652344 27.296875 35.292969 27.4375 34.96875 C 27.554688 34.691406 27.804688 34.5625 28 34.5 C 28.101563 34.46875 28.199219 34.445313 28.28125 34.4375 Z M 22.375 34.6875 L 22.875 34.8125 L 22.34375 36.875 L 21.71875 36.71875 L 22.125 35.1875 C 21.925781 35.277344 21.640625 35.3125 21.53125 35.3125 L 21.65625 34.84375 C 21.925781 34.832031 22.09375 34.816406 22.375 34.6875 Z M 28.15625 34.875 C 27.984375 34.929688 27.835938 35.074219 28.03125 35.6875 C 28.167969 36.121094 28.3125 36.328125 28.5625 36.25 C 28.65625 36.21875 28.757813 36.152344 28.78125 36.0625 C 28.824219 35.875 28.703125 35.542969 28.6875 35.5 C 28.65625 35.394531 28.589844 35.136719 28.5 35 C 28.453125 34.933594 28.351563 34.8125 28.15625 34.875 Z M 26.71875 34.90625 L 26.96875 37 L 26.375 37.09375 L 26.15625 35.53125 C 26.003906 35.6875 25.757813 35.804688 25.65625 35.84375 L 25.59375 35.375 C 25.839844 35.265625 25.976563 35.195313 26.1875 34.96875 Z M 24.25 34.9375 C 24.839844 34.976563 24.996094 35.3125 25.0625 35.5 C 25.136719 35.707031 25.140625 35.90625 25.125 36.125 C 25.105469 36.371094 25.054688 36.714844 24.84375 36.9375 C 24.617188 37.175781 24.308594 37.207031 24.03125 37.1875 C 23.746094 37.167969 23.488281 37.070313 23.3125 36.875 C 23.199219 36.742188 23.21875 36.621094 23.21875 36.53125 L 23.8125 36.5625 C 23.808594 36.683594 23.914063 36.769531 24.09375 36.78125 C 24.433594 36.804688 24.5 36.535156 24.53125 36.15625 C 24.414063 36.269531 24.238281 36.363281 23.96875 36.34375 C 23.667969 36.324219 23.546875 36.246094 23.4375 36.125 C 23.316406 35.992188 23.238281 35.820313 23.25 35.625 C 23.28125 35.191406 23.6875 34.898438 24.25 34.9375 Z M 16.6875 35 C 18.136719 36.207031 19.867188 37.078125 21.75 37.5625 C 21.589844 37.878906 21.386719 38.210938 21.125 38.46875 C 20.777344 38.8125 20.417969 39 20 39 C 18.847656 39 17.039063 37.855469 15.5 36.40625 C 15.488281 36.394531 15.480469 36.386719 15.46875 36.375 Z M 33.3125 35 L 34.53125 36.375 C 34.519531 36.386719 34.511719 36.394531 34.5 36.40625 C 32.960938 37.855469 31.152344 39 30 39 C 29.570313 39 29.199219 38.800781 28.84375 38.4375 C 28.59375 38.183594 28.402344 37.863281 28.25 37.5625 C 30.132813 37.078125 31.863281 36.207031 33.3125 35 Z M 24.0625 35.34375 C 23.929688 35.382813 23.851563 35.488281 23.84375 35.625 C 23.832031 35.785156 23.902344 35.980469 24.15625 36 C 24.398438 36.015625 24.519531 35.875 24.53125 35.6875 C 24.542969 35.546875 24.492188 35.363281 24.21875 35.34375 C 24.160156 35.339844 24.105469 35.332031 24.0625 35.34375 Z"/></svg>